Coordinates
version=1
nRows=20
nColumns=34
inDegrees=yes

Units are S.I. units (second, meters, Newtons, ...)
If the header above contains a line with 'inDegrees', this indicates whether rotational values are in degrees (yes) or radians (no).

endheader
time	pelvis_tilt	pelvis_list	pelvis_rotation	pelvis_tx	pelvis_ty	pelvis_tz	hip_flexion_r	hip_adduction_r	hip_rotation_r	knee_angle_r	ankle_angle_r	subtalar_angle_r	mtp_angle_r	hip_flexion_l	hip_adduction_l	hip_rotation_l	knee_angle_l	ankle_angle_l	subtalar_angle_l	mtp_angle_l	lumbar_extension	lumbar_bending	lumbar_rotation	arm_flex_r	arm_add_r	arm_rot_r	elbow_flex_r	pro_sup_r	arm_flex_l	arm_add_l	arm_rot_l	elbow_flex_l	pro_sup_l
      7.01666670	     14.35508795	      8.56124293	    -29.64857973	      0.19715883	      0.99910090	     -0.07004828	      7.85889587	     -2.02451819	      1.03003327	     11.46146172	      5.44485624	    -11.97290239	      0.00000000	     65.32163320	    -16.37326081	      0.11576872	     80.41427315	     -2.83014115	    -19.47786207	      0.00000000	    -21.86809005	    -10.83117608	      4.47655751	     12.79942075	    -17.81287854	     13.63535204	     55.39209131	    119.74817918	      6.92928096	    -18.42929036	      2.86885046	    107.72951760	    119.74817918
      7.03333330	     14.49676261	      8.02364743	    -29.59682575	      0.20167934	      0.99951725	     -0.07014653	      7.48422845	     -1.78240406	      0.79393481	     12.12102464	      6.10731050	    -11.70887223	      0.00000000	     63.37903669	    -16.15678664	     -0.37912800	     79.97168245	     -3.75868168	    -18.79684046	      0.00000000	    -21.54531547	     -9.88604121	      4.12019367	     12.12123918	    -18.02908524	     13.73715186	     56.63980673	    119.74817918	      6.33203381	    -18.12559452	      3.02131985	    107.88611457	    119.74817918
      7.05000000	     14.90428766	      7.45869024	    -29.47921064	      0.20622384	      1.00069001	     -0.07030059	      6.68838082	     -1.73105107	     -0.07580242	     12.52072386	      7.07753831	    -10.61183542	      0.00000000	     60.94685153	    -15.87298451	     -1.05547611	     79.30179381	     -4.53735758	    -18.04092842	      0.00000000	    -21.54756074	     -9.04538337	      3.65980623	     11.39623050	    -18.16852087	     13.70922797	     57.76305566	    119.74817918	      6.05954321	    -17.83887650	      3.41778462	    107.74880473	    119.74817918
      7.06666670	     14.93548799	      7.08181592	    -29.42133379	      0.21051116	      1.00096176	     -0.07092243	      6.49339468	     -1.59007274	     -0.24738997	     13.07459254	      7.60287693	    -10.48798269	      0.00000000	     58.85365927	    -15.66423488	     -1.74321568	     78.45736112	     -5.16542616	    -17.27714681	      0.00000000	    -21.13802592	     -8.17209794	      3.09926182	     10.74987060	    -18.38053176	     14.09164592	     59.06893860	    119.74817918	      5.56110417	    -17.45881997	      3.61769735	    107.82852890	    119.74817918
      7.08333330	     15.23396780	      6.65057670	    -29.33043436	      0.21477693	      1.00198213	     -0.07158546	      5.87468616	     -1.57382296	     -0.68953047	     13.40450879	      8.24904424	     -9.91046372	      0.00000000	     56.18968765	    -15.45478886	     -2.74444807	     77.31362368	     -5.35415463	    -16.34389039	      0.00000000	    -21.04698319	     -7.40713618	      2.56156316	     10.08756485	    -18.49845357	     14.38131446	     60.24593826	    119.74817918	      5.39839637	    -17.12351190	      4.04382905	    107.66527594	    119.74817918
      7.10000000	     15.25002464	      6.30739465	    -29.19353467	      0.21871445	      1.00233466	     -0.07301179	      5.71941899	     -1.49280153	     -0.87989102	     13.91977864	      8.68252392	     -9.68681940	      0.00000000	     53.84035959	    -15.18791709	     -3.62137852	     75.95924959	     -5.54357213	    -15.45054205	      0.00000000	    -20.72074131	     -6.53101056	      1.95016409	      9.49890470	    -18.71397380	     14.74715980	     61.60138426	    119.74817918	      5.22624753	    -16.60116402	      4.47341514	    107.54801755	    119.74817918
      7.11666670	     15.30979433	      5.91187957	    -29.08796880	      0.22238720	      1.00267189	     -0.07434255	      5.47100026	     -1.38377333	     -1.16978006	     14.35558416	      9.10951236	     -9.39995259	      0.00000000	     51.31632247	    -15.06702606	     -4.59432870	     74.33838876	     -5.41237859	    -14.58133857	      0.00000000	    -20.49098660	     -5.69578760	      1.32235841	      8.86678864	    -18.92665276	     15.04725459	     63.08489184	    119.74817918	      5.29453007	    -16.13537844	      5.04899423	    107.27457911	    119.74817918
      7.13333330	     15.18552324	      5.44757652	    -29.05897293	      0.22572751	      1.00263517	     -0.07533495	      5.38177191	     -1.08172888	     -1.55982128	     14.75218386	      9.48542463	     -9.24036593	      0.00000000	     48.88469541	    -15.12629805	     -5.50973882	     72.56463041	     -5.15020670	    -14.01663762	      0.00000000	    -20.11594660	     -4.87790988	      0.62334044	      8.27583730	    -18.96683558	     15.28091133	     64.73260854	    119.74817918	      5.42003101	    -15.84657362	      5.64956145	    106.91000994	    119.74817918
      7.15000000	     15.42089783	      4.86723692	    -29.23060918	      0.22884569	      1.00354711	     -0.07642323	      4.75771216	     -0.91758968	     -1.95393201	     14.86873739	     10.01493589	     -8.01311907	      0.00000000	     45.76716300	    -15.14972048	     -6.55474925	     70.48328877	     -4.53330530	    -13.33627492	      0.00000000	    -20.22241461	     -4.21008772	      0.26295943	      7.44713606	    -19.07931802	     14.56550874	     66.70380194	    119.74817918	      6.10258955	    -15.66580533	      6.96485238	    106.23337358	    119.74817918
      7.16666670	     15.36709580	      4.40672470	    -29.39017867	      0.23162992	      1.00367803	     -0.07828307	      4.62171859	     -0.72361646	     -2.38100127	     15.15643301	     10.36418645	     -7.29497334	      0.00000000	     42.99455566	    -14.99462785	     -7.39140336	     68.20169117	     -4.02535180	    -13.11307497	      0.00000000	    -20.09240600	     -3.41579004	     -0.15280111	      6.75543115	    -19.33926294	     14.17091512	     68.93307990	    119.74817918	      6.81581635	    -15.35199916	      8.15981997	    105.69234426	    119.74817918
      7.18333330	     15.25863542	      3.93501747	    -29.62149614	      0.23418295	      1.00382300	     -0.08106703	      4.51139121	     -0.50729334	     -2.52737570	     15.30380582	     10.51710375	     -6.78234162	      0.00000000	     40.18982934	    -14.71696131	     -7.96423548	     65.63368121	     -3.51796064	    -12.91752552	      0.00000000	    -20.06429020	     -2.50524208	     -0.48229504	      6.11580165	    -19.72476514	     13.75322313	     71.29677083	    119.74817918	      7.64491096	    -14.93445135	      9.47211028	    105.07876947	    119.74817918
      7.20000000	     15.05412818	      3.40496879	    -29.87995268	      0.23667544	      1.00389045	     -0.08394916	      4.42898290	     -0.18773329	     -2.63408261	     15.35668176	     10.56838276	     -6.28430042	      0.00000000	     37.37174054	    -14.61058503	     -8.45537036	     62.82944731	     -3.03104612	    -13.14560460	      0.00000000	    -20.02708002	     -1.51837314	     -0.77943676	      5.36765365	    -19.97538091	     13.03654512	     73.68624363	    119.74817918	      8.52371013	    -14.61799670	     10.84815294	    104.33326169	    119.74817918
      7.21666670	     14.75139308	      2.82718587	    -30.06616719	      0.23963787	      1.00384978	     -0.08670541	      4.37286099	      0.21950911	     -2.82216250	     15.39002193	     10.65870168	     -5.76585235	      0.00000000	     34.57794784	    -14.71714232	     -8.98662540	     59.91465191	     -2.59121428	    -13.69883576	      0.00000000	    -19.88777700	     -0.42064367	     -1.17498253	      4.47800616	    -20.01130604	     11.96878334	     75.94021992	    119.74817918	      9.41137152	    -14.40889565	     12.27222461	    103.43792260	    119.74817918
      7.23333330	     14.40243499	      2.28332823	    -30.13083283	      0.24347271	      1.00374970	     -0.08969154	      4.37767859	      0.58559263	     -3.09883780	     15.54345557	     10.91139407	     -5.33917839	      0.00000000	     31.73473942	    -14.72054542	     -9.44073582	     56.74635195	     -1.86622504	    -14.08345856	      0.00000000	    -19.60167100	      0.76272315	     -1.68356602	      3.47354945	    -19.97592101	     10.66718600	     77.90086664	    119.74817918	     10.28403564	    -14.13505606	     13.74245450	    102.50443507	    119.74817918
      7.25000000	     14.00300429	      1.66915676	    -30.04233140	      0.24830782	      1.00342335	     -0.09222993	      4.46157828	      1.03103061	     -3.52406637	     16.01243200	     11.36368557	     -4.88520964	      0.00000000	     28.69752881	    -14.69343726	     -9.67307918	     53.24507547	     -0.52227298	    -14.42127710	      0.00000000	    -19.11229673	      2.05334383	     -2.38388999	      2.38382040	    -19.85751767	      9.26333904	     79.64202516	    119.74817918	     11.00942797	    -13.85533974	     15.15266712	    101.70079654	    119.74817918
      7.26666670	     13.66207573	      0.98295635	    -29.90073867	      0.25406280	      1.00306650	     -0.09453262	      4.52485329	      1.43086950	     -4.21084961	     16.77967062	     12.02057041	     -4.10293464	      0.00000000	     25.25766322	    -14.60084175	     -9.69712240	     49.24304581	      1.32687231	    -14.61832293	      0.00000000	    -18.51790475	      3.31780304	     -3.23639577	      1.24435859	    -19.79997889	      7.94869226	     81.31839687	    119.74817918	     11.68408477	    -13.55982831	     16.49620663	    101.14798405	    119.74817918
      7.28333330	     13.30146564	      0.39129584	    -29.76436094	      0.25974748	      1.00273403	     -0.09684023	      4.57441914	      1.71875182	     -5.08187846	     17.37881947	     12.74974614	     -3.08530182	      0.00000000	     21.73183497	    -14.45003982	     -9.83191493	     44.68873548	      2.43212954	    -14.51252908	      0.00000000	    -17.91751155	      4.49226193	     -4.30437982	      0.17844034	    -19.96586354	      7.14249655	     83.30665535	    119.74817918	     12.41441524	    -13.26943767	     17.59939180	    100.72140360	    119.74817918
      7.30000000	     12.91881858	     -0.08479103	    -29.82373271	      0.26448725	      1.00239288	     -0.09938130	      4.70331486	      1.84911607	     -6.13137868	     17.83597160	     13.42914258	     -1.48564433	      0.00000000	     18.27895611	    -14.35389777	    -10.29766835	     39.76435522	      2.60736234	    -14.31222878	      0.00000000	    -17.46976934	      5.59104566	     -5.40367444	     -0.69215420	    -20.02342425	      6.27133882	     85.42979801	    119.74817918	     13.36612705	    -13.18047452	     18.55695337	    100.56875258	    119.74817918
      7.31666670	     12.48388381	     -0.47700482	    -29.88583122	      0.26974971	      1.00178249	     -0.10201854	      5.00032826	      1.89045546	     -7.27423811	     18.50228413	     14.24204139	      0.12167472	      0.00000000	     14.75925325	    -14.06612228	    -10.79383000	     34.41719219	      3.30444686	    -13.48891608	      0.00000000	    -16.93250520	      6.64790242	     -6.67012088	     -1.59179082	    -19.91236642	      5.12527867	     87.54279932	    119.74817918	     14.26117475	    -13.11976537	     19.21103909	    100.87068389	    119.74817918
      7.33333330	     11.91489576	     -0.92360697	    -30.15010295	      0.27601322	      1.00080149	     -0.10490914	      5.36925019	      2.01240899	     -8.18344384	     19.19442372	     15.10346687	      1.63859905	      0.00000000	     10.95489135	    -13.81360875	    -11.70877537	     28.40740162	      4.62566473	    -12.27161003	      0.00000000	    -16.30829931	      7.92333036	     -7.81639151	     -2.64886570	    -20.06014828	      3.90005686	     90.04106931	    119.74817918	     15.02530331	    -12.92402234	     19.66696865	    101.45515846	    119.74817918
